<svg  viewBox="0 0 24 24" fill="none" xmlns="http://www.w3.org/2000/svg">
<path d="M23.1557 14.7816C22.6056 16.9884 21.4133 18.9825 19.7296 20.5118C18.046 22.041 15.9466 23.0367 13.6969 23.3729C11.4473 23.7091 9.14848 23.3706 7.09121 22.4004C5.03395 21.4302 3.31065 19.8718 2.13927 17.9222C0.967881 15.9727 0.401022 13.7196 0.510371 11.4479C0.61972 9.17624 1.40037 6.98801 2.75359 5.15995C4.10682 3.3319 5.97183 1.94615 8.11278 1.17796C10.2537 0.40977 12.5744 0.293657 14.7814 0.844306C17.7401 1.58253 20.2845 3.46553 21.8549 6.07917C23.4253 8.69282 23.8932 11.8231 23.1557 14.7816Z" fill="white" stroke="#E7E9F3"/>
<path d="M11.9979 3.62781L11.8857 4.00936V15.0834L11.9979 15.1956L17.1387 12.1569L11.9979 3.62781Z" fill="#343434"/>
<path d="M11.9982 3.62781L6.85742 12.1569L11.9982 15.1956V3.62781Z" fill="#8C8C8C"/>
<path d="M11.9992 16.1687L11.9355 16.246V20.1905L11.9992 20.3753L17.143 13.1318L11.9992 16.1687Z" fill="#3C3C3B"/>
<path d="M11.9982 20.3753V16.1687L6.85742 13.1318L11.9982 20.3753Z" fill="#8C8C8C"/>
<path d="M11.998 15.195L17.1388 12.1564L11.998 9.8197V15.195Z" fill="#141414"/>
<path d="M6.85742 12.1569L11.9982 15.1955V9.82019L6.85742 12.1569Z" fill="#393939"/>
</svg>
