<svg width="25" height="24" viewBox="0 0 25 24" fill="none" xmlns="http://www.w3.org/2000/svg">
<path d="M20.47 8.75078H17.53C16.26 8.75078 15.5 7.99078 15.5 6.72078V3.78078C15.5 2.51078 16.26 1.75078 17.53 1.75078H20.47C21.74 1.75078 22.5 2.51078 22.5 3.78078V6.72078C22.5 7.99078 21.74 8.75078 20.47 8.75078ZM20.69 5.44078C20.57 5.32078 20.41 5.26078 20.25 5.26078C20.09 5.26078 19.93 5.32078 19.81 5.44078L19.63 5.62078V3.38078C19.63 3.03078 19.35 2.75078 19 2.75078C18.65 2.75078 18.37 3.03078 18.37 3.38078V5.62078L18.19 5.44078C17.95 5.20078 17.55 5.20078 17.31 5.44078C17.07 5.68078 17.07 6.08078 17.31 6.32078L18.56 7.57078C18.61 7.62078 18.68 7.66078 18.75 7.69078C18.77 7.70078 18.79 7.70078 18.81 7.71078C18.86 7.73078 18.91 7.74078 18.97 7.74078C18.99 7.74078 19.01 7.74078 19.03 7.74078C19.1 7.74078 19.16 7.73078 19.23 7.70078C19.24 7.70078 19.24 7.70078 19.25 7.70078C19.32 7.67078 19.38 7.63078 19.43 7.58078C19.44 7.57078 19.44 7.57078 19.45 7.57078L20.7 6.32078C20.94 6.08078 20.94 5.68078 20.69 5.44078Z" fill="#A6C1FF"/>
<path d="M2.49683 11.4592V16.4592C2.49683 18.7492 4.34683 20.5992 6.63683 20.5992H18.3468C20.6368 20.5992 22.4968 18.7392 22.4968 16.4492V11.4592C22.4968 10.7892 21.9568 10.2492 21.2868 10.2492H3.70683C3.03683 10.2492 2.49683 10.7892 2.49683 11.4592ZM8.49683 17.2492H6.49683C6.08683 17.2492 5.74683 16.9092 5.74683 16.4992C5.74683 16.0892 6.08683 15.7492 6.49683 15.7492H8.49683C8.90683 15.7492 9.24683 16.0892 9.24683 16.4992C9.24683 16.9092 8.90683 17.2492 8.49683 17.2492ZM14.9968 17.2492H10.9968C10.5868 17.2492 10.2468 16.9092 10.2468 16.4992C10.2468 16.0892 10.5868 15.7492 10.9968 15.7492H14.9968C15.4068 15.7492 15.7468 16.0892 15.7468 16.4992C15.7468 16.9092 15.4068 17.2492 14.9968 17.2492Z" fill="#A6C1FF"/>
<path d="M13.9968 4.61079V7.54079C13.9968 8.21079 13.4568 8.75079 12.7868 8.75079H3.70683C3.02683 8.75079 2.49683 8.19079 2.49683 7.52079C2.50683 6.39079 2.95683 5.36079 3.70683 4.61079C4.45683 3.86079 5.49683 3.40079 6.63683 3.40079H12.7868C13.4568 3.40079 13.9968 3.94079 13.9968 4.61079Z" fill="#A6C1FF"/>
</svg>
